{
	"asset":{
		"generator":"Khronos glTF Blender I/O v3.6.28",
		"version":"2.0"
	},
	"extensionsUsed":[
		"KHR_materials_specular",
		"KHR_materials_ior"
	],
	"scene":0,
	"scenes":[
		{
			"name":"Scene",
			"nodes":[
				0
			]
		}
	],
	"nodes":[
		{
			"mesh":0,
			"name":"Plane_Plane.001",
			"rotation":[
				0.7071068286895752,
				0,
				0,
				0.7071068286895752
			]
		}
	],
	"materials":[
		{
			"doubleSided":true,
			"extensions":{
				"KHR_materials_specular":{
					"specularColorFactor":[
						1,
						1,
						1
					]
				},
				"KHR_materials_ior":{
					"ior":1
				}
			},
			"name":"66E98012_c",
			"pbrMetallicRoughness":{
				"baseColorTexture":{
					"index":0
				},
				"metallicFactor":0
			}
		},
		{
			"doubleSided":true,
			"extensions":{
				"KHR_materials_specular":{
					"specularColorFactor":[
						1,
						1,
						1
					]
				},
				"KHR_materials_ior":{
					"ior":1
				}
			},
			"name":"6710DE47_c",
			"pbrMetallicRoughness":{
				"baseColorTexture":{
					"index":1
				},
				"metallicFactor":0
			}
		},
		{
			"doubleSided":true,
			"extensions":{
				"KHR_materials_specular":{
					"specularColorFactor":[
						1,
						1,
						1
					]
				},
				"KHR_materials_ior":{
					"ior":1
				}
			},
			"name":"4C5B999E_c",
			"pbrMetallicRoughness":{
				"baseColorTexture":{
					"index":2
				},
				"metallicFactor":0
			}
		},
		{
			"doubleSided":true,
			"extensions":{
				"KHR_materials_specular":{
					"specularColorFactor":[
						1,
						1,
						1
					]
				},
				"KHR_materials_ior":{
					"ior":1
				}
			},
			"name":"77CC5BFB_c",
			"pbrMetallicRoughness":{
				"baseColorTexture":{
					"index":3
				},
				"metallicFactor":0
			}
		},
		{
			"doubleSided":true,
			"extensions":{
				"KHR_materials_specular":{
					"specularColorFactor":[
						1,
						1,
						1
					]
				},
				"KHR_materials_ior":{
					"ior":1
				}
			},
			"name":"1D597D82_c",
			"pbrMetallicRoughness":{
				"baseColorTexture":{
					"index":4
				},
				"metallicFactor":0
			}
		},
		{
			"doubleSided":true,
			"extensions":{
				"KHR_materials_specular":{
					"specularColorFactor":[
						1,
						1,
						1
					]
				},
				"KHR_materials_ior":{
					"ior":1
				}
			},
			"name":"143D0D9A_c",
			"pbrMetallicRoughness":{
				"baseColorTexture":{
					"index":5
				},
				"metallicFactor":0
			}
		},
		{
			"doubleSided":true,
			"extensions":{
				"KHR_materials_specular":{
					"specularColorFactor":[
						1,
						1,
						1
					]
				},
				"KHR_materials_ior":{
					"ior":1
				}
			},
			"name":"6EA1DEBC_c",
			"pbrMetallicRoughness":{
				"baseColorTexture":{
					"index":6
				},
				"metallicFactor":0
			}
		},
		{
			"doubleSided":true,
			"extensions":{
				"KHR_materials_specular":{
					"specularColorFactor":[
						1,
						1,
						1
					]
				},
				"KHR_materials_ior":{
					"ior":1
				}
			},
			"name":"6C07F214_c",
			"pbrMetallicRoughness":{
				"baseColorTexture":{
					"index":7
				},
				"metallicFactor":0
			}
		},
		{
			"doubleSided":true,
			"extensions":{
				"KHR_materials_specular":{
					"specularColorFactor":[
						1,
						1,
						1
					]
				},
				"KHR_materials_ior":{
					"ior":1
				}
			},
			"name":"2031D569_c",
			"pbrMetallicRoughness":{
				"baseColorTexture":{
					"index":8
				},
				"metallicFactor":0
			}
		},
		{
			"doubleSided":true,
			"extensions":{
				"KHR_materials_specular":{
					"specularColorFactor":[
						1,
						1,
						1
					]
				},
				"KHR_materials_ior":{
					"ior":1
				}
			},
			"name":"58166DAC_c",
			"pbrMetallicRoughness":{
				"baseColorTexture":{
					"index":9
				},
				"metallicFactor":0
			}
		},
		{
			"doubleSided":true,
			"extensions":{
				"KHR_materials_specular":{
					"specularColorFactor":[
						1,
						1,
						1
					]
				},
				"KHR_materials_ior":{
					"ior":1
				}
			},
			"name":"11EFC0A2_c",
			"pbrMetallicRoughness":{
				"baseColorTexture":{
					"index":10
				},
				"metallicFactor":0
			}
		}
	],
	"meshes":[
		{
			"name":"Plane_Plane.001",
			"primitives":[
				{
					"attributes":{
						"POSITION":0,
						"NORMAL":1,
						"TEXCOORD_0":2
					},
					"indices":3,
					"material":0
				},
				{
					"attributes":{
						"POSITION":4,
						"NORMAL":5,
						"TEXCOORD_0":6
					},
					"indices":7,
					"material":1
				},
				{
					"attributes":{
						"POSITION":8,
						"NORMAL":9,
						"TEXCOORD_0":10
					},
					"indices":11,
					"material":2
				},
				{
					"attributes":{
						"POSITION":12,
						"NORMAL":13,
						"TEXCOORD_0":14
					},
					"indices":15,
					"material":3
				},
				{
					"attributes":{
						"POSITION":16,
						"NORMAL":17,
						"TEXCOORD_0":18
					},
					"indices":19,
					"material":4
				},
				{
					"attributes":{
						"POSITION":20,
						"NORMAL":21,
						"TEXCOORD_0":22
					},
					"indices":23,
					"material":5
				},
				{
					"attributes":{
						"POSITION":24,
						"NORMAL":25,
						"TEXCOORD_0":26
					},
					"indices":27,
					"material":6
				},
				{
					"attributes":{
						"POSITION":28,
						"NORMAL":29,
						"TEXCOORD_0":30
					},
					"indices":31,
					"material":7
				},
				{
					"attributes":{
						"POSITION":32,
						"NORMAL":33,
						"TEXCOORD_0":34
					},
					"indices":35,
					"material":8
				},
				{
					"attributes":{
						"POSITION":36,
						"NORMAL":37,
						"TEXCOORD_0":38
					},
					"indices":39,
					"material":9
				},
				{
					"attributes":{
						"POSITION":40,
						"NORMAL":41,
						"TEXCOORD_0":42
					},
					"indices":43,
					"material":10
				}
			]
		}
	],
	"textures":[
		{
			"sampler":0,
			"source":0
		},
		{
			"sampler":0,
			"source":1
		},
		{
			"sampler":0,
			"source":2
		},
		{
			"sampler":0,
			"source":3
		},
		{
			"sampler":0,
			"source":4
		},
		{
			"sampler":0,
			"source":5
		},
		{
			"sampler":0,
			"source":6
		},
		{
			"sampler":0,
			"source":7
		},
		{
			"sampler":0,
			"source":8
		},
		{
			"sampler":0,
			"source":9
		},
		{
			"sampler":0,
			"source":10
		}
	],
	"images":[
		{
			"bufferView":4,
			"mimeType":"image/png",
			"name":"66E98012_c"
		},
		{
			"bufferView":9,
			"mimeType":"image/png",
			"name":"6710DE47_c"
		},
		{
			"bufferView":14,
			"mimeType":"image/png",
			"name":"4C5B999E_c"
		},
		{
			"bufferView":19,
			"mimeType":"image/png",
			"name":"77CC5BFB_c"
		},
		{
			"bufferView":24,
			"mimeType":"image/png",
			"name":"1D597D82_c"
		},
		{
			"bufferView":29,
			"mimeType":"image/png",
			"name":"143D0D9A_c"
		},
		{
			"bufferView":34,
			"mimeType":"image/png",
			"name":"6EA1DEBC_c"
		},
		{
			"bufferView":39,
			"mimeType":"image/png",
			"name":"6C07F214_c"
		},
		{
			"bufferView":44,
			"mimeType":"image/png",
			"name":"2031D569_c"
		},
		{
			"bufferView":49,
			"mimeType":"image/png",
			"name":"58166DAC_c"
		},
		{
			"bufferView":54,
			"mimeType":"image/png",
			"name":"11EFC0A2_c"
		}
	],
	"accessors":[
		{
			"bufferView":0,
			"componentType":5126,
			"count":90,
			"max":[
				0.9900929927825928,
				-0.8728439807891846,
				-0.9095630049705505
			],
			"min":[
				-0.9849569797515869,
				-1.9023890495300293,
				-1.1279540061950684
			],
			"type":"VEC3"
		},
		{
			"bufferView":1,
			"componentType":5126,
			"count":90,
			"type":"VEC3"
		},
		{
			"bufferView":2,
			"componentType":5126,
			"count":90,
			"type":"VEC2"
		},
		{
			"bufferView":3,
			"componentType":5123,
			"count":96,
			"type":"SCALAR"
		},
		{
			"bufferView":5,
			"componentType":5126,
			"count":46,
			"max":[
				1.036892056465149,
				-1.5915850400924683,
				-0.25918900966644287
			],
			"min":[
				-1.031751036643982,
				-2.05717396736145,
				-0.7151709794998169
			],
			"type":"VEC3"
		},
		{
			"bufferView":6,
			"componentType":5126,
			"count":46,
			"type":"VEC3"
		},
		{
			"bufferView":7,
			"componentType":5126,
			"count":46,
			"type":"VEC2"
		},
		{
			"bufferView":8,
			"componentType":5123,
			"count":48,
			"type":"SCALAR"
		},
		{
			"bufferView":10,
			"componentType":5126,
			"count":60,
			"max":[
				0.7573249936103821,
				0.3174560070037842,
				-0.9899600148200989
			],
			"min":[
				-0.7521600127220154,
				-1.619204044342041,
				-1.298346996307373
			],
			"type":"VEC3"
		},
		{
			"bufferView":11,
			"componentType":5126,
			"count":60,
			"type":"VEC3"
		},
		{
			"bufferView":12,
			"componentType":5126,
			"count":60,
			"type":"VEC2"
		},
		{
			"bufferView":13,
			"componentType":5123,
			"count":72,
			"type":"SCALAR"
		},
		{
			"bufferView":15,
			"componentType":5126,
			"count":40,
			"max":[
				0.7597339749336243,
				1.1465940475463867,
				-0.9071630239486694
			],
			"min":[
				-0.7545509934425354,
				-0.8728700280189514,
				-1.2323499917984009
			],
			"type":"VEC3"
		},
		{
			"bufferView":16,
			"componentType":5126,
			"count":40,
			"type":"VEC3"
		},
		{
			"bufferView":17,
			"componentType":5126,
			"count":40,
			"type":"VEC2"
		},
		{
			"bufferView":18,
			"componentType":5123,
			"count":42,
			"type":"SCALAR"
		},
		{
			"bufferView":20,
			"componentType":5126,
			"count":76,
			"max":[
				1.0585459470748901,
				1.7957229614257812,
				-0.1487939953804016
			],
			"min":[
				0.7573249936103821,
				-1.903596043586731,
				-0.9947599768638611
			],
			"type":"VEC3"
		},
		{
			"bufferView":21,
			"componentType":5126,
			"count":76,
			"type":"VEC3"
		},
		{
			"bufferView":22,
			"componentType":5126,
			"count":76,
			"type":"VEC2"
		},
		{
			"bufferView":23,
			"componentType":5123,
			"count":78,
			"type":"SCALAR"
		},
		{
			"bufferView":25,
			"componentType":5126,
			"count":73,
			"max":[
				-0.7521600127220154,
				1.7957570552825928,
				-0.1487939953804016
			],
			"min":[
				-1.0533490180969238,
				-1.9035619497299194,
				-0.9947599768638611
			],
			"type":"VEC3"
		},
		{
			"bufferView":26,
			"componentType":5126,
			"count":73,
			"type":"VEC3"
		},
		{
			"bufferView":27,
			"componentType":5126,
			"count":73,
			"type":"VEC2"
		},
		{
			"bufferView":28,
			"componentType":5123,
			"count":75,
			"type":"SCALAR"
		},
		{
			"bufferView":30,
			"componentType":5126,
			"count":62,
			"max":[
				1.0585500001907349,
				2.4448940753936768,
				-0.13559399545192719
			],
			"min":[
				-1.0532900094985962,
				1.8485180139541626,
				-0.5807759761810303
			],
			"type":"VEC3"
		},
		{
			"bufferView":31,
			"componentType":5126,
			"count":62,
			"type":"VEC3"
		},
		{
			"bufferView":32,
			"componentType":5126,
			"count":62,
			"type":"VEC2"
		},
		{
			"bufferView":33,
			"componentType":5123,
			"count":66,
			"type":"SCALAR"
		},
		{
			"bufferView":35,
			"componentType":5126,
			"count":55,
			"max":[
				0.9805480241775513,
				1.7957570552825928,
				-0.8087670207023621
			],
			"min":[
				-0.9753119945526123,
				-0.38808101415634155,
				-0.9167630076408386
			],
			"type":"VEC3"
		},
		{
			"bufferView":36,
			"componentType":5126,
			"count":55,
			"type":"VEC3"
		},
		{
			"bufferView":37,
			"componentType":5126,
			"count":55,
			"type":"VEC2"
		},
		{
			"bufferView":38,
			"componentType":5123,
			"count":57,
			"type":"SCALAR"
		},
		{
			"bufferView":40,
			"componentType":5126,
			"count":38,
			"max":[
				1.0068880319595337,
				-1.7691730260849,
				-0.7151709794998169
			],
			"min":[
				-1.0017579793930054,
				-2.05717396736145,
				-0.9095630049705505
			],
			"type":"VEC3"
		},
		{
			"bufferView":41,
			"componentType":5126,
			"count":38,
			"type":"VEC3"
		},
		{
			"bufferView":42,
			"componentType":5126,
			"count":38,
			"type":"VEC2"
		},
		{
			"bufferView":43,
			"componentType":5123,
			"count":42,
			"type":"SCALAR"
		},
		{
			"bufferView":45,
			"componentType":5126,
			"count":75,
			"max":[
				1.0585500001907349,
				2.4448940753936768,
				-0.5783759951591492
			],
			"min":[
				-1.053292989730835,
				1.6721309423446655,
				-0.8771640062332153
			],
			"type":"VEC3"
		},
		{
			"bufferView":46,
			"componentType":5126,
			"count":75,
			"type":"VEC3"
		},
		{
			"bufferView":47,
			"componentType":5126,
			"count":75,
			"type":"VEC2"
		},
		{
			"bufferView":48,
			"componentType":5123,
			"count":78,
			"type":"SCALAR"
		},
		{
			"bufferView":50,
			"componentType":5126,
			"count":60,
			"max":[
				1.0585500001907349,
				1.886950969696045,
				-0.13559399545192719
			],
			"min":[
				-1.0533490180969238,
				-1.5964189767837524,
				-0.7175710201263428
			],
			"type":"VEC3"
		},
		{
			"bufferView":51,
			"componentType":5126,
			"count":60,
			"type":"VEC3"
		},
		{
			"bufferView":52,
			"componentType":5126,
			"count":60,
			"type":"VEC2"
		},
		{
			"bufferView":53,
			"componentType":5123,
			"count":84,
			"type":"SCALAR"
		}
	],
	"bufferViews":[
		{
			"buffer":0,
			"byteLength":1080,
			"byteOffset":0,
			"target":34962
		},
		{
			"buffer":0,
			"byteLength":1080,
			"byteOffset":1080,
			"target":34962
		},
		{
			"buffer":0,
			"byteLength":720,
			"byteOffset":2160,
			"target":34962
		},
		{
			"buffer":0,
			"byteLength":192,
			"byteOffset":2880,
			"target":34963
		},
		{
			"buffer":0,
			"byteLength":504,
			"byteOffset":3072
		},
		{
			"buffer":0,
			"byteLength":552,
			"byteOffset":3576,
			"target":34962
		},
		{
			"buffer":0,
			"byteLength":552,
			"byteOffset":4128,
			"target":34962
		},
		{
			"buffer":0,
			"byteLength":368,
			"byteOffset":4680,
			"target":34962
		},
		{
			"buffer":0,
			"byteLength":96,
			"byteOffset":5048,
			"target":34963
		},
		{
			"buffer":0,
			"byteLength":669,
			"byteOffset":5144
		},
		{
			"buffer":0,
			"byteLength":720,
			"byteOffset":5816,
			"target":34962
		},
		{
			"buffer":0,
			"byteLength":720,
			"byteOffset":6536,
			"target":34962
		},
		{
			"buffer":0,
			"byteLength":480,
			"byteOffset":7256,
			"target":34962
		},
		{
			"buffer":0,
			"byteLength":144,
			"byteOffset":7736,
			"target":34963
		},
		{
			"buffer":0,
			"byteLength":502,
			"byteOffset":7880
		},
		{
			"buffer":0,
			"byteLength":480,
			"byteOffset":8384,
			"target":34962
		},
		{
			"buffer":0,
			"byteLength":480,
			"byteOffset":8864,
			"target":34962
		},
		{
			"buffer":0,
			"byteLength":320,
			"byteOffset":9344,
			"target":34962
		},
		{
			"buffer":0,
			"byteLength":84,
			"byteOffset":9664,
			"target":34963
		},
		{
			"buffer":0,
			"byteLength":632,
			"byteOffset":9748
		},
		{
			"buffer":0,
			"byteLength":912,
			"byteOffset":10380,
			"target":34962
		},
		{
			"buffer":0,
			"byteLength":912,
			"byteOffset":11292,
			"target":34962
		},
		{
			"buffer":0,
			"byteLength":608,
			"byteOffset":12204,
			"target":34962
		},
		{
			"buffer":0,
			"byteLength":156,
			"byteOffset":12812,
			"target":34963
		},
		{
			"buffer":0,
			"byteLength":798,
			"byteOffset":12968
		},
		{
			"buffer":0,
			"byteLength":876,
			"byteOffset":13768,
			"target":34962
		},
		{
			"buffer":0,
			"byteLength":876,
			"byteOffset":14644,
			"target":34962
		},
		{
			"buffer":0,
			"byteLength":584,
			"byteOffset":15520,
			"target":34962
		},
		{
			"buffer":0,
			"byteLength":150,
			"byteOffset":16104,
			"target":34963
		},
		{
			"buffer":0,
			"byteLength":791,
			"byteOffset":16256
		},
		{
			"buffer":0,
			"byteLength":744,
			"byteOffset":17048,
			"target":34962
		},
		{
			"buffer":0,
			"byteLength":744,
			"byteOffset":17792,
			"target":34962
		},
		{
			"buffer":0,
			"byteLength":496,
			"byteOffset":18536,
			"target":34962
		},
		{
			"buffer":0,
			"byteLength":132,
			"byteOffset":19032,
			"target":34963
		},
		{
			"buffer":0,
			"byteLength":700,
			"byteOffset":19164
		},
		{
			"buffer":0,
			"byteLength":660,
			"byteOffset":19864,
			"target":34962
		},
		{
			"buffer":0,
			"byteLength":660,
			"byteOffset":20524,
			"target":34962
		},
		{
			"buffer":0,
			"byteLength":440,
			"byteOffset":21184,
			"target":34962
		},
		{
			"buffer":0,
			"byteLength":114,
			"byteOffset":21624,
			"target":34963
		},
		{
			"buffer":0,
			"byteLength":946,
			"byteOffset":21740
		},
		{
			"buffer":0,
			"byteLength":456,
			"byteOffset":22688,
			"target":34962
		},
		{
			"buffer":0,
			"byteLength":456,
			"byteOffset":23144,
			"target":34962
		},
		{
			"buffer":0,
			"byteLength":304,
			"byteOffset":23600,
			"target":34962
		},
		{
			"buffer":0,
			"byteLength":84,
			"byteOffset":23904,
			"target":34963
		},
		{
			"buffer":0,
			"byteLength":625,
			"byteOffset":23988
		},
		{
			"buffer":0,
			"byteLength":900,
			"byteOffset":24616,
			"target":34962
		},
		{
			"buffer":0,
			"byteLength":900,
			"byteOffset":25516,
			"target":34962
		},
		{
			"buffer":0,
			"byteLength":600,
			"byteOffset":26416,
			"target":34962
		},
		{
			"buffer":0,
			"byteLength":156,
			"byteOffset":27016,
			"target":34963
		},
		{
			"buffer":0,
			"byteLength":917,
			"byteOffset":27172
		},
		{
			"buffer":0,
			"byteLength":720,
			"byteOffset":28092,
			"target":34962
		},
		{
			"buffer":0,
			"byteLength":720,
			"byteOffset":28812,
			"target":34962
		},
		{
			"buffer":0,
			"byteLength":480,
			"byteOffset":29532,
			"target":34962
		},
		{
			"buffer":0,
			"byteLength":168,
			"byteOffset":30012,
			"target":34963
		},
		{
			"buffer":0,
			"byteLength":1966,
			"byteOffset":30180
		}
	],
	"samplers":[
		{
			"magFilter":9728,
			"minFilter":9984
		}
	],
	"buffers":[
		{
			"byteLength":32148,
			"uri":"data:application/octet-stream;base64,"
		}
	]
}
