# Blender v3.6.5 OBJ File: ''
# www.blender.org
mtllib wheel.mtl
o Plane_Plane.001
v -0.160000 0.000000 -0.320000
v 0.160000 0.000000 -0.320000
v -0.160000 -0.122459 -0.295641
v 0.160000 -0.122459 -0.295641
v -0.160000 -0.226274 -0.226274
v 0.160000 -0.226274 -0.226274
v -0.160000 -0.295641 -0.122459
v 0.160000 -0.295641 -0.122459
v -0.160000 -0.320000 -0.000000
v 0.160000 -0.320000 -0.000000
v -0.160000 -0.295641 0.122459
v 0.160000 -0.295641 0.122459
v -0.160000 -0.226274 0.226274
v 0.160000 -0.226274 0.226274
v -0.160000 -0.122459 0.295641
v 0.160000 -0.122459 0.295641
v -0.160000 -0.000000 0.320000
v 0.160000 -0.000000 0.320000
v -0.160000 0.122459 0.295641
v 0.160000 0.122459 0.295641
v -0.160000 0.226274 0.226274
v 0.160000 0.226274 0.226274
v -0.160000 0.295641 0.122459
v 0.160000 0.295641 0.122459
v -0.160000 0.320000 0.000000
v 0.160000 0.320000 0.000000
v -0.160000 0.295641 -0.122459
v 0.160000 0.295641 -0.122459
v -0.160000 0.226274 -0.226274
v 0.160000 0.226274 -0.226274
v -0.160000 0.122459 -0.295641
v 0.160000 0.122459 -0.295641
vt 0.603953 0.865357
vt 0.603953 0.964388
vt 0.591574 0.964388
vt 0.591574 0.865357
vt 0.579195 0.964388
vt 0.579195 0.865357
vt 0.566816 0.964388
vt 0.566816 0.865357
vt 0.554437 0.964388
vt 0.554437 0.865357
vt 0.542058 0.964388
vt 0.542058 0.865357
vt 0.529679 0.964388
vt 0.529679 0.865357
vt 0.517300 0.964388
vt 0.517300 0.865357
vt 0.504922 0.964388
vt 0.504922 0.865357
vt 0.492543 0.964388
vt 0.492543 0.865357
vt 0.480164 0.964388
vt 0.480164 0.865357
vt 0.467785 0.964388
vt 0.467785 0.865357
vt 0.455406 0.964388
vt 0.455406 0.865357
vt 0.443027 0.964388
vt 0.443027 0.865357
vt 0.430648 0.964388
vt 0.430648 0.865357
vt 0.683688 0.943462
vt 0.500000 0.980000
vt 0.316312 0.943462
vt 0.160589 0.839411
vt 0.056538 0.683688
vt 0.020000 0.500000
vt 0.056538 0.316312
vt 0.160589 0.160589
vt 0.316312 0.056538
vt 0.500000 0.020000
vt 0.683688 0.056538
vt 0.839411 0.160589
vt 0.943462 0.316312
vt 0.980000 0.500000
vt 0.943462 0.683688
vt 0.839411 0.839411
vt 0.418269 0.964388
vt 0.418269 0.865357
vt 0.405891 0.964388
vt 0.405891 0.865357
vt 0.500000 0.980128
vt 0.683737 0.943580
vt 0.839502 0.839502
vt 0.943580 0.683737
vt 0.980128 0.500000
vt 0.943580 0.316263
vt 0.839502 0.160498
vt 0.683737 0.056420
vt 0.500000 0.019872
vt 0.316263 0.056420
vt 0.160498 0.160498
vt 0.056420 0.316263
vt 0.019872 0.500000
vt 0.056420 0.683737
vt 0.160498 0.839502
vt 0.316263 0.943580
vn -0.0000 -0.1951 -0.9808
vn 0.0000 -0.5556 -0.8315
vn 0.0000 -0.8315 -0.5556
vn 0.0000 -0.9808 -0.1951
vn -0.0000 -0.9808 0.1951
vn 0.0000 -0.8315 0.5556
vn 0.0000 -0.5556 0.8315
vn 0.0000 -0.1951 0.9808
vn 0.0000 0.1951 0.9808
vn 0.0000 0.5556 0.8315
vn -0.0000 0.8315 0.5556
vn -0.0000 0.9808 0.1951
vn 0.0000 0.9808 -0.1951
vn 0.0000 0.8315 -0.5556
vn 1.0000 0.0000 -0.0000
vn -0.0000 0.5556 -0.8315
vn -0.0000 0.1951 -0.9808
vn -1.0000 -0.0000 0.0000
usemtl 11EFC0A2_c
s off
f 1/1/1 2/2/1 4/3/1 3/4/1
f 3/4/2 4/3/2 6/5/2 5/6/2
f 5/6/3 6/5/3 8/7/3 7/8/3
f 7/8/4 8/7/4 10/9/4 9/10/4
f 9/10/5 10/9/5 12/11/5 11/12/5
f 11/12/6 12/11/6 14/13/6 13/14/6
f 13/14/7 14/13/7 16/15/7 15/16/7
f 15/16/8 16/15/8 18/17/8 17/18/8
f 17/18/9 18/17/9 20/19/9 19/20/9
f 19/20/10 20/19/10 22/21/10 21/22/10
f 21/22/11 22/21/11 24/23/11 23/24/11
f 23/24/12 24/23/12 26/25/12 25/26/12
f 25/26/13 26/25/13 28/27/13 27/28/13
f 27/28/14 28/27/14 30/29/14 29/30/14
f 4/31/15 2/32/15 32/33/15 30/34/15 28/35/15 26/36/15 24/37/15 22/38/15 20/39/15 18/40/15 16/41/15 14/42/15 12/43/15 10/44/15 8/45/15 6/46/15
f 29/30/16 30/29/16 32/47/16 31/48/16
f 31/48/17 32/47/17 2/49/17 1/50/17
f 1/51/18 3/52/18 5/53/18 7/54/18 9/55/18 11/56/18 13/57/18 15/58/18 17/59/18 19/60/18 21/61/18 23/62/18 25/63/18 27/64/18 29/65/18 31/66/18
