{"accessors":[{"bufferView":0,"byteOffset":0,"componentType":5126,"count":12390,"max":[67.40004,1.63194,43.833775],"min":[-98.812531,-0.119722,-48.592758],"normalized":false,"type":"VEC3"},{"bufferView":1,"byteOffset":0,"componentType":5126,"count":12390,"max":[0.999998,0.059349,0.999765,1],"min":[-1,-0.046445,-1,1],"normalized":false,"type":"VEC4"},{"bufferView":2,"byteOffset":0,"componentType":5126,"count":12390,"max":[0.6855,1,0.689673],"min":[-0.688643,-1,-0.710925],"normalized":false,"type":"VEC3"},{"bufferView":3,"byteOffset":0,"componentType":5126,"count":12390,"max":[68.662415,0.5],"min":[0,0],"normalized":false,"type":"VEC2"},{"bufferView":4,"byteOffset":0,"componentType":5125,"count":12390,"max":[12389],"min":[0],"normalized":false,"type":"SCALAR"},{"bufferView":5,"byteOffset":0,"componentType":5126,"count":36,"max":[500,0.25,500],"min":[-500,-0.25,-500],"normalized":false,"type":"VEC3"},{"bufferView":6,"byteOffset":0,"componentType":5126,"count":36,"max":[0,0,0.000076,-1],"min":[-1,-1,-1,-1],"normalized":false,"type":"VEC4"},{"bufferView":7,"byteOffset":0,"componentType":5126,"count":36,"max":[1,1,1],"min":[-1,-1,-1],"normalized":false,"type":"VEC3"},{"bufferView":8,"byteOffset":0,"componentType":5126,"count":36,"max":[1,1],"min":[0,0],"normalized":false,"type":"VEC2"},{"bufferView":9,"byteOffset":0,"componentType":5125,"count":36,"max":[35],"min":[0],"normalized":false,"type":"SCALAR"}],"asset":{"generator":"Godot Engine v4.1.1.stable.official@bd6af8e0ea69167dd0627f3bd54f9105bda0f8b5","version":"2.0"},"bufferViews":[{"buffer":0,"byteLength":148680,"byteOffset":0},{"buffer":0,"byteLength":198240,"byteOffset":148680},{"buffer":0,"byteLength":148680,"byteOffset":346920},{"buffer":0,"byteLength":99120,"byteOffset":495600},{"buffer":0,"byteLength":49560,"byteOffset":594720},{"buffer":0,"byteLength":432,"byteOffset":644280},{"buffer":0,"byteLength":576,"byteOffset":644712},{"buffer":0,"byteLength":432,"byteOffset":645288},{"buffer":0,"byteLength":288,"byteOffset":645720},{"buffer":0,"byteLength":144,"byteOffset":646008}],"buffers":[{"byteLength":646152,"uri":"csg_test0.bin"}],"images":[{"uri":"textures%2F_albedo000.png"}],"materials":[{"extensions":{},"pbrMetallicRoughness":{"baseColorFactor":[0.99999988079071,0.99999988079071,0.99999988079071,1],"baseColorTexture":{"index":0},"metallicFactor":0,"roughnessFactor":1}},{"extensions":{},"pbrMetallicRoughness":{"baseColorFactor":[0.99999988079071,0.99999988079071,0.99999988079071,1],"metallicFactor":0,"roughnessFactor":1}}],"meshes":[{"extras":{"targetNames":[]},"primitives":[{"attributes":{"NORMAL":2,"POSITION":0,"TANGENT":1,"TEXCOORD_0":3},"indices":4,"material":0,"mode":4}]},{"extras":{"targetNames":[]},"primitives":[{"attributes":{"NORMAL":7,"POSITION":5,"TANGENT":6,"TEXCOORD_0":8},"indices":9,"material":1,"mode":4}]}],"nodes":[{"children":[1,2,3],"extensions":{},"name":"model"},{"extensions":{},"name":"Path3D"},{"extensions":{},"mesh":0,"name":"polygon_road2","translation":[9.68494987487793,0,-28.8907794952393]},{"extensions":{},"mesh":1,"name":"CSGBox3D2","translation":[0,-0.20000000298023,0]}],"samplers":[{"magFilter":9729,"minFilter":9987,"wrapS":10497,"wrapT":10497}],"scene":0,"scenes":[{"nodes":[0]}],"textures":[{"sampler":0,"source":0}]}